<svg width="221" height="117" viewBox="0 0 221 117" fill="none" xmlns="http://www.w3.org/2000/svg">
<rect width="221" height="117" fill="transparent"/>
<path d="M54.99 55.05V59.31H61.86V63.27H54.99V67.89H62.76V72H49.86V50.94H62.76V55.05H54.99ZM65.3705 63.6C65.3705 61.88 65.6905 60.37 66.3305 59.07C66.9905 57.77 67.8805 56.77 69.0005 56.07C70.1205 55.37 71.3705 55.02 72.7505 55.02C73.8505 55.02 74.8505 55.25 75.7505 55.71C76.6705 56.17 77.3905 56.79 77.9105 57.57V49.8H83.0405V72H77.9105V69.6C77.4305 70.4 76.7405 71.04 75.8405 71.52C74.9605 72 73.9305 72.24 72.7505 72.24C71.3705 72.24 70.1205 71.89 69.0005 71.19C67.8805 70.47 66.9905 69.46 66.3305 68.16C65.6905 66.84 65.3705 65.32 65.3705 63.6ZM77.9105 63.63C77.9105 62.35 77.5505 61.34 76.8305 60.6C76.1305 59.86 75.2705 59.49 74.2505 59.49C73.2305 59.49 72.3605 59.86 71.6405 60.6C70.9405 61.32 70.5905 62.32 70.5905 63.6C70.5905 64.88 70.9405 65.9 71.6405 66.66C72.3605 67.4 73.2305 67.77 74.2505 67.77C75.2705 67.77 76.1305 67.4 76.8305 66.66C77.5505 65.92 77.9105 64.91 77.9105 63.63ZM103.582 55.26V72H98.4518V69.72C97.9318 70.46 97.2218 71.06 96.3218 71.52C95.4418 71.96 94.4618 72.18 93.3818 72.18C92.1018 72.18 90.9718 71.9 89.9918 71.34C89.0118 70.76 88.2518 69.93 87.7118 68.85C87.1718 67.77 86.9018 66.5 86.9018 65.04V55.26H92.0018V64.35C92.0018 65.47 92.2918 66.34 92.8718 66.96C93.4518 67.58 94.2318 67.89 95.2118 67.89C96.2118 67.89 97.0018 67.58 97.5818 66.96C98.1618 66.34 98.4518 65.47 98.4518 64.35V55.26H103.582ZM106.697 61.44C106.697 59.36 107.147 57.51 108.047 55.89C108.947 54.25 110.197 52.98 111.797 52.08C113.417 51.16 115.247 50.7 117.287 50.7C119.787 50.7 121.927 51.36 123.707 52.68C125.487 54 126.677 55.8 127.277 58.08H121.637C121.217 57.2 120.617 56.53 119.837 56.07C119.077 55.61 118.207 55.38 117.227 55.38C115.647 55.38 114.367 55.93 113.387 57.03C112.407 58.13 111.917 59.6 111.917 61.44C111.917 63.28 112.407 64.75 113.387 65.85C114.367 66.95 115.647 67.5 117.227 67.5C118.207 67.5 119.077 67.27 119.837 66.81C120.617 66.35 121.217 65.68 121.637 64.8H127.277C126.677 67.08 125.487 68.88 123.707 70.2C121.927 71.5 119.787 72.15 117.287 72.15C115.247 72.15 113.417 71.7 111.797 70.8C110.197 69.88 108.947 68.61 108.047 66.99C107.147 65.37 106.697 63.52 106.697 61.44ZM138.338 72.24C136.698 72.24 135.218 71.89 133.898 71.19C132.598 70.49 131.568 69.49 130.808 68.19C130.068 66.89 129.698 65.37 129.698 63.63C129.698 61.91 130.078 60.4 130.838 59.1C131.598 57.78 132.638 56.77 133.958 56.07C135.278 55.37 136.758 55.02 138.398 55.02C140.038 55.02 141.518 55.37 142.838 56.07C144.158 56.77 145.198 57.78 145.958 59.1C146.718 60.4 147.098 61.91 147.098 63.63C147.098 65.35 146.708 66.87 145.928 68.19C145.168 69.49 144.118 70.49 142.778 71.19C141.458 71.89 139.978 72.24 138.338 72.24ZM138.338 67.8C139.318 67.8 140.148 67.44 140.828 66.72C141.528 66 141.878 64.97 141.878 63.63C141.878 62.29 141.538 61.26 140.858 60.54C140.198 59.82 139.378 59.46 138.398 59.46C137.398 59.46 136.568 59.82 135.908 60.54C135.248 61.24 134.918 62.27 134.918 63.63C134.918 64.97 135.238 66 135.878 66.72C136.538 67.44 137.358 67.8 138.338 67.8ZM160.32 55.08C162.28 55.08 163.84 55.72 165 57C166.18 58.26 166.77 60 166.77 62.22V72H161.67V62.91C161.67 61.79 161.38 60.92 160.8 60.3C160.22 59.68 159.44 59.37 158.46 59.37C157.48 59.37 156.7 59.68 156.12 60.3C155.54 60.92 155.25 61.79 155.25 62.91V72H150.12V55.26H155.25V57.48C155.77 56.74 156.47 56.16 157.35 55.74C158.23 55.3 159.22 55.08 160.32 55.08Z" fill="#2F2E41"/>
<path d="M164.204 59.1461C162.47 57.7724 161.042 56.0501 160.015 54.0905C159.953 53.9745 159.927 53.843 159.938 53.7122C159.95 53.5813 160 53.4567 160.081 53.3535L163.476 49.0077C163.588 48.8655 163.751 48.7732 163.93 48.7512C164.11 48.7292 164.29 48.7792 164.433 48.8903L174.1 56.4432C174.242 56.5546 174.335 56.7178 174.357 56.8972C174.379 57.0765 174.329 57.2573 174.218 57.3998L170.822 61.7456C170.742 61.8494 170.633 61.9277 170.509 61.9707C170.385 62.0138 170.251 62.0198 170.123 61.988C167.973 61.4651 165.957 60.4969 164.204 59.1461Z" fill="#78CEFF"/>
<path d="M166.954 55.6244C166.882 55.5684 166.822 55.4987 166.778 55.4194L161.638 46.1962C161.572 46.0773 161.543 45.9412 161.555 45.8056C161.566 45.6699 161.618 45.5409 161.704 45.4352C161.79 45.3295 161.905 45.2519 162.036 45.2124C162.166 45.1729 162.305 45.1734 162.435 45.2137L172.373 48.2952C172.533 48.3447 172.67 48.4516 172.756 48.5955L178.047 57.4125C178.117 57.5287 178.151 57.6632 178.144 57.7986C178.136 57.9341 178.089 58.0643 178.008 58.1727C177.926 58.2811 177.814 58.3627 177.686 58.407C177.558 58.4514 177.419 58.4566 177.288 58.4218L167.198 55.7464C167.109 55.7227 167.026 55.6811 166.954 55.6244Z" fill="#78CEFF"/>
<path d="M160.362 54.8381C160.758 55.1471 161.329 55.077 161.638 54.6816C161.947 54.2862 161.877 53.7151 161.481 53.4061C161.086 53.0972 160.515 53.1672 160.206 53.5627C159.897 53.9581 159.967 54.5291 160.362 54.8381Z" fill="#3F3D56"/>
<path opacity="0.2" d="M177.673 57.9831L167.583 55.3077C167.504 55.2868 167.431 55.2503 167.367 55.2004C167.302 55.1504 167.249 55.0881 167.209 55.017L162.07 45.7939C162.004 45.679 161.979 45.5457 161.998 45.415C161.919 45.4472 161.847 45.4959 161.787 45.558C161.728 45.6201 161.683 45.6941 161.654 45.7751C161.626 45.8561 161.615 45.9422 161.622 46.0277C161.629 46.1133 161.655 46.1963 161.697 46.2712L166.836 55.4943C166.876 55.5654 166.929 55.6278 166.994 55.6777C167.058 55.7277 167.131 55.7642 167.21 55.785L177.3 58.4604C177.383 58.4825 177.469 58.4867 177.554 58.4728C177.638 58.459 177.719 58.4274 177.79 58.3801C177.862 58.3328 177.922 58.2709 177.968 58.1985C178.013 58.1261 178.043 58.0449 178.055 57.9601C177.934 58.0097 177.799 58.0178 177.673 57.9831Z" fill="black"/>
<path d="M160.984 54.1665C161.016 54.1912 161.056 54.2024 161.096 54.1975C161.136 54.1926 161.172 54.1721 161.197 54.1404L164.316 50.1474L169.373 51.7889C169.404 51.8141 169.444 51.8259 169.484 51.8216C169.524 51.8173 169.561 51.7973 169.586 51.766C169.611 51.7347 169.623 51.6947 169.618 51.6548C169.614 51.6149 169.594 51.5783 169.563 51.5531L164.506 49.9115C164.475 49.886 164.439 49.8671 164.401 49.856C164.362 49.8448 164.322 49.8416 164.282 49.8465C164.242 49.851 164.203 49.8634 164.168 49.883C164.133 49.9027 164.102 49.9292 164.078 49.9609L160.958 53.9539C160.933 53.9856 160.922 54.0257 160.927 54.0656C160.932 54.1055 160.953 54.1418 160.984 54.1665Z" fill="#3F3D56"/>
</svg>
